<svg width="32" height="32" viewBox="0 0 32 32" fill="none" xmlns="http://www.w3.org/2000/svg">
  <circle cx="16" cy="16" r="16" fill="#0066CC"/>
  <path d="M16 6C10.477 6 6 10.477 6 16C6 21.523 10.477 26 16 26C21.523 26 26 21.523 26 16C26 10.477 21.523 6 16 6ZM16 24C11.582 24 8 20.418 8 16C8 11.582 11.582 8 16 8C20.418 8 24 11.582 24 16C24 20.418 20.418 24 16 24Z" fill="white"/>
  <path d="M23 14H22.18C22.06 13.34 21.8 12.72 21.44 12.14L22.16 11.42C22.44 11.14 22.44 10.68 22.16 10.4L21.6 9.84C21.32 9.56 20.86 9.56 20.58 9.84L19.86 10.56C19.28 10.2 18.66 9.94 18 9.82V9C18 8.58 17.66 8.24 17.24 8.24H16.76C16.34 8.24 16 8.58 16 9V9.82C15.34 9.94 14.72 10.2 14.14 10.56L13.42 9.84C13.14 9.56 12.68 9.56 12.4 9.84L11.84 10.4C11.56 10.68 11.56 11.14 11.84 11.42L12.56 12.14C12.2 12.72 11.94 13.34 11.82 14H11C10.58 14 10.24 14.34 10.24 14.76V15.24C10.24 15.66 10.58 16 11 16H11.82C11.94 16.66 12.2 17.28 12.56 17.86L11.84 18.58C11.56 18.86 11.56 19.32 11.84 19.6L12.4 20.16C12.68 20.44 13.14 20.44 13.42 20.16L14.14 19.44C14.72 19.8 15.34 20.06 16 20.18V21C16 21.42 16.34 21.76 16.76 21.76H17.24C17.66 21.76 18 21.42 18 21V20.18C18.66 20.06 19.28 19.8 19.86 19.44L20.58 20.16C20.86 20.44 21.32 20.44 21.6 20.16L22.16 19.6C22.44 19.32 22.44 18.86 22.16 18.58L21.44 17.86C21.8 17.28 22.06 16.66 22.18 16H23C23.42 16 23.76 15.66 23.76 15.24V14.76C23.76 14.34 23.42 14 23 14ZM16 18C14.9 18 14 17.1 14 16C14 14.9 14.9 14 16 14C17.1 14 18 14.9 18 16C18 17.1 17.1 18 16 18Z" fill="white"/>
</svg> 